<!-- 遗物图集：二十个适合 44 像素显示的简化剪影图标，每格 64×64。 -->
<svg xmlns="http://www.w3.org/2000/svg" width="320" height="256" viewBox="0 0 320 256">
  <g stroke="#211c29" stroke-width="3.5" stroke-linecap="round" stroke-linejoin="round">
    <!-- 凯旋号角：弯曲号角 -->
    <g transform="translate(0 0)">
      <path d="M10 38 Q20 43 30 35 L42 23 L50 29 L36 44 Q26 55 13 48 Z" fill="#d69b50"/>
      <path d="M41 22 L52 16 L56 34 L48 31 Z" fill="#f3d183"/>
      <path d="M13 38 Q20 40 21 46 M28 35 L35 42" fill="none" stroke="#fff0b4" stroke-width="2.5"/>
    </g>
    <!-- 叠攻刻印：向上生长的剑印 -->
    <g transform="translate(64 0)">
      <path d="M30 8 L38 20 L35 42 L29 47 L25 40 L27 21 Z" fill="#d15b54"/>
      <path d="M18 39 L42 39 L43 46 L18 46 Z" fill="#e5ba73"/>
      <path d="M29 45 L31 56" stroke="#e5ba73" stroke-width="6"/>
      <path d="M13 29 L17 21 L21 29 M43 29 L47 21 L51 29" fill="none" stroke="#e9ce81" stroke-width="3"/>
    </g>
    <!-- 冷却刻印：沙漏 -->
    <g transform="translate(128 0)">
      <path d="M16 12 H48 M16 52 H48" stroke="#e5c785" stroke-width="6"/>
      <path d="M20 15 Q20 25 31 31 Q20 39 20 49 H44 Q44 39 33 31 Q44 25 44 15 Z" fill="#6caabb"/>
      <path d="M25 20 H39 L32 28 Z M25 44 L32 36 L39 44 Z" fill="#f4df9c" stroke="none"/>
    </g>
    <!-- 处决：双刃重斧 -->
    <g transform="translate(192 0)">
      <path d="M20 53 L42 11" stroke="#9d7558" stroke-width="8"/>
      <path d="M28 16 Q12 13 8 25 Q16 29 16 39 Q30 40 40 24 Q48 34 57 29 Q50 12 39 10 Z" fill="#c75450"/>
      <path d="M13 25 Q20 24 23 28 M44 18 Q48 20 51 25" fill="none" stroke="#f4ae78" stroke-width="2.5"/>
    </g>
    <!-- 先手：闪电短刃 -->
    <g transform="translate(256 0)">
      <path d="M38 8 L19 30 L30 31 L21 55 L48 26 L35 25 Z" fill="#f2c75f"/>
      <path d="M12 17 L14 12 M50 47 L55 49" stroke="#f6e4a4" stroke-width="4"/>
    </g>
    <!-- 背水为战：裂盾 -->
    <g transform="translate(0 64)">
      <path d="M32 7 L51 15 L48 36 Q44 49 32 57 Q17 48 15 35 L13 15 Z" fill="#b84f57"/>
      <path d="M32 10 L28 27 L37 32 L25 52" fill="none" stroke="#f0c78b" stroke-width="5"/>
      <path d="M17 18 L25 17 M40 17 L47 19" stroke="#f5a77b" stroke-width="2"/>
    </g>
    <!-- 收割之魂：紫色魂焰与骷髅 -->
    <g transform="translate(64 64)">
      <path d="M31 8 Q11 28 20 47 Q25 56 37 53 Q56 42 43 20 Q42 30 35 31 Q37 19 31 8 Z" fill="#8d6ab2"/>
      <path d="M24 33 Q28 25 39 30 Q45 35 40 44 L36 48 H27 L23 42 Z" fill="#e3d6c7"/>
      <circle cx="28" cy="37" r="2.5" fill="#28202e" stroke="none"/><circle cx="37" cy="37" r="2.5" fill="#28202e" stroke="none"/>
    </g>
    <!-- 猎魔嗅探：明亮独眼 -->
    <g transform="translate(128 64)">
      <path d="M7 32 Q30 8 57 31 Q34 56 7 32 Z" fill="#8ac5aa"/>
      <circle cx="32" cy="32" r="12" fill="#f4e1ae"/>
      <circle cx="32" cy="32" r="6" fill="#40364a" stroke="none"/>
      <circle cx="29" cy="29" r="2" fill="#fff8dc" stroke="none"/>
    </g>
    <!-- 守护精灵：青色小翅膀 -->
    <g transform="translate(192 64)">
      <path d="M32 42 Q7 40 9 18 Q21 17 32 31 Q43 17 55 18 Q57 40 32 42 Z" fill="#7fbfbb"/>
      <path d="M32 30 L32 50 M13 22 L28 38 M51 22 L36 38" fill="none" stroke="#e3f1d6" stroke-width="3"/>
      <circle cx="32" cy="27" r="5" fill="#f3db8e"/>
    </g>
    <!-- 灵能循环：蓝色循环环 -->
    <g transform="translate(256 64)">
      <path d="M16 29 A18 18 0 0 1 46 21 L52 18 L50 31 L38 28 L42 25 A11 11 0 0 0 23 29" fill="#6fabc7"/>
      <path d="M48 36 A18 18 0 0 1 18 43 L12 46 L14 33 L26 36 L22 39 A11 11 0 0 0 41 35" fill="#a183c6"/>
    </g>
    <!-- 层积风暴：乌云与闪电 -->
    <g transform="translate(0 128)">
      <path d="M12 33 Q8 22 20 19 Q26 8 37 18 Q50 16 53 27 Q59 37 47 40 H17 Q10 40 12 33 Z" fill="#7b819e"/>
      <path d="M33 34 L22 48 L31 47 L27 59 L46 41 L35 42 Z" fill="#f0cd68"/>
    </g>
    <!-- 不朽血契：血滴与握拳 -->
    <g transform="translate(64 128)">
      <path d="M33 7 Q42 19 45 29 Q50 46 33 53 Q16 48 20 31 Q23 20 33 7 Z" fill="#c75c65"/>
      <path d="M24 40 L28 31 L34 35 L39 28 L42 40 Q36 48 29 46 Z" fill="#f0b18a"/>
      <path d="M29 18 L33 13" stroke="#ffe1b2" stroke-width="2.5"/>
    </g>
    <!-- 守护之盾：绳结围住盾牌 -->
    <g transform="translate(128 128)">
      <path d="M13 19 Q9 32 17 44 Q24 55 37 53 Q52 50 54 34 Q55 20 47 15" fill="none" stroke="#c4a272" stroke-width="7"/>
      <path d="M32 10 L47 18 L44 37 Q41 47 32 52 Q21 45 20 36 L18 18 Z" fill="#7295bd"/>
      <path d="M32 18 V44 M24 30 H40" stroke="#e9dfbb" stroke-width="4"/>
    </g>
    <!-- 沉淀韧甲：三层甲片 -->
    <g transform="translate(192 128)">
      <path d="M17 13 L47 13 L51 24 L44 29 H20 L13 24 Z" fill="#999ab0"/>
      <path d="M16 27 L48 27 L50 38 L43 43 H21 L14 38 Z" fill="#7589aa"/>
      <path d="M19 40 L45 40 L43 53 H21 Z" fill="#576e91"/>
      <path d="M23 18 H41 M23 33 H41 M25 46 H39" stroke="#d7d8c7" stroke-width="2"/>
    </g>
    <!-- 噬骸成长：骸骨中长出的绿芽 -->
    <g transform="translate(256 128)">
      <path d="M14 43 Q9 40 12 35 Q16 32 20 35 L40 21 Q43 15 48 17 Q53 20 49 26 L28 48 Q25 53 20 51 Q15 50 14 43 Z" fill="#d8d2b3"/>
      <path d="M33 26 Q29 15 17 14 Q17 26 29 29 M35 25 Q39 11 52 11 Q50 24 36 28" fill="#81bd78"/>
    </g>
    <!-- 愈心祭司：白色圣杯 -->
    <g transform="translate(0 192)">
      <path d="M16 13 H48 L44 33 Q39 42 32 42 Q23 42 20 33 Z" fill="#e5ddc6"/>
      <path d="M32 42 V51 M22 53 H42" stroke="#dec68e" stroke-width="6"/>
      <path d="M32 17 V34 M24 25 H40" stroke="#80bd89" stroke-width="5"/>
    </g>
    <!-- 行军口粮：方形饼干 -->
    <g transform="translate(64 192)">
      <path d="M14 15 L48 13 L52 47 L18 51 Z" fill="#d8a263"/>
      <circle cx="25" cy="25" r="2" fill="#795441" stroke="none"/><circle cx="38" cy="23" r="2" fill="#795441" stroke="none"/>
      <circle cx="28" cy="39" r="2" fill="#795441" stroke="none"/><circle cx="42" cy="37" r="2" fill="#795441" stroke="none"/>
      <path d="M19 18 L46 17" stroke="#f1ce8d" stroke-width="2"/>
    </g>
    <!-- 力量祝福：握紧的拳头 -->
    <g transform="translate(128 192)">
      <path d="M14 30 L20 22 L26 24 L31 18 L36 21 L42 18 L49 24 L49 39 L39 50 H22 L14 42 Z" fill="#c96957"/>
      <path d="M20 29 L26 33 M30 27 L33 33 M40 25 L40 32" stroke="#f4b085" stroke-width="3"/>
      <path d="M17 43 H42" stroke="#e68d6e" stroke-width="2"/>
    </g>
    <!-- 守御祝福：厚实蓝盾 -->
    <g transform="translate(192 192)">
      <path d="M32 8 L52 17 L49 38 Q45 50 32 57 Q18 50 15 38 L12 17 Z" fill="#729ab9"/>
      <path d="M32 15 V50 M19 28 H45" stroke="#dae7d4" stroke-width="5"/>
    </g>
    <!-- 生命祝福：翠绿心脏 -->
    <g transform="translate(256 192)">
      <path d="M32 53 Q8 36 11 21 Q14 8 28 14 L32 19 L36 14 Q50 8 53 21 Q56 36 32 53 Z" fill="#85bd7c"/>
      <path d="M32 19 V43 M21 31 H43" stroke="#e8e7b5" stroke-width="4"/>
    </g>
  </g>
</svg>
